<svg id="Layer_1" data-name="Layer 1" xmlns="http://www.w3.org/2000/svg" viewBox="0 0 335.75 323.64"><path d="M249.1,234.81c1.93-3.38,5.14-5.43,9.68-5.79-8.82-3.27-20.18,3.08-24.95,10.36-4.9-10.21-13.08-19.36-23.11-24.7a26.66,26.66,0,0,1,9-.13c-10.07-9.77-27.64-8.42-36.91,1.84-2.71-4.42-7.52-7.41-11.7-10.22,9.53,18.41,5,41.77-9.23,56a29.32,29.32,0,0,0,.39-7.54c-5.12,2.26-10.31,5.08-14.41,8.92a56.87,56.87,0,0,1,4-6.79,26.4,26.4,0,0,0-13.44,8.82,228.23,228.23,0,0,0-27.59-35.26c4,3.57,10.15,5.62,15.45,6-6.55-6.55-8.36-12.45-7.78-17.44,3.13,5.85,11.83,11.21,20.23,9.63,15.8-3,19.82-19.79,29.4-30.34A11.82,11.82,0,0,1,175.7,194c3-.28,5.51,1.57,8.37,1.66,5.89.18,12.57-4.67,15.83-9.19,4.25-5.89,5.35-13.43,5.8-20.67.36-5.77.37-11.62,1.6-17.3.93-4.32,3.65-8.2.14-12.29a14.17,14.17,0,0,0-7-4.31c-2.8-.57-5.22-.86-7.75-2.45a8,8,0,0,1-2.3-2,3.89,3.89,0,0,1-.76-2.9,3.48,3.48,0,0,1,2.54-2.54c1.3-.48,2.66-1.34,1.43-2.9a4.11,4.11,0,0,0-2-1.21c-4.92-1.58-8.4,1-12.57,3-2.46,1.2-4.56,2.41-7.3,2.94a39.09,39.09,0,0,1-7.64.56,61.58,61.58,0,0,0-8.26.27c-2.43.31-4.74,1.25-7.12,1.75-24.59,5.19-28.71-9.19-23.45-18.62-5.28,0-10.55,2.87-14,8.57-5.07-11-14.74-23.06-30.34-27.89,5.51,6.44,8.15,17.22,7,23.2-5.42-20-20.52-25.68-35.35-24.82,17-30.77,38-39,52.69-51.8,8.31-7.25,15.21-15.66,28.59-18.28.68,3.49,2.3,12.15,10.92,17-7.38-13.59,3.06-17.38,4.63-7.55,2.95-4.6,3.22-9.95,3.4-12.56,21.08-3.51,38.27,4.47,46.75,21.29,2.62,5.2,2.13,11.69,6.42,15.8,5,5.13,11.79,7.71,18.19,10.38,6.21,2.59-1.5,2.79-5.8,1.62,1.83,11.39,13,7.53,2.16,21.94-7.91,11-30.31-1.94-32.94,10.87C196,92,205,95.41,213.65,93.59c11.64-2.46,17.08-17.37,18.41-27.72.74-5.67-8.33-9.42-12.86-11.2-21.69-8.51-7.72-20-24.55-34.21-6.25-5.27-13.91-9.85-22.34-11.3-1.64-10.65-14.15-13.29-16.5-1-1.23.09-2.44.25-3.44.37-2.2-13.55-16.7-8.49-18.7,3a73.38,73.38,0,0,0-18.8,7.23c-10.83,5.85-18.65,15.86-28.68,23A136.84,136.84,0,0,0,58.06,68.94C49.8,79.48,43.27,91.28,35.4,102.13c-4.48,6.18-8.79,12.78-10.83,20.22C18.62,140.55,7.09,157.07,3,176.15c-5.26,24.55-2.65,39.07.58,58.64,2.18,13.17.09,27.92,4,39.65,8.57,26,24.84,31.23,24.84,20.11,16.77,15.17,39,15.07,54.32,21.08,15.65,6.15,32.13,14,46.6.89a21.32,21.32,0,0,0,11.26,3.53c-7.94-4.52-12.47-15.11-13.27-24a20.67,20.67,0,0,0,8,9.82c-7.34-12.64-4.27-29.09,4.88-40.05a29.27,29.27,0,0,0-.36,9.7,24.27,24.27,0,0,1,13.74-12.77c-2.22,3.69-3.24,8.22-2.12,12a15.93,15.93,0,0,0,7.12-6.77c.95,10.85-4.63,17.38-5.83,28-1.29,11.41,2.59,17.23-1.9,23.32,10.79-7.57,3.9-19.78,12-32.62,10.94,3.28,22.32-2.29,33.46-1.66,8.07.46,13,7.12,21.61,5,6.08,13.88,23,15,30.74,3.65,4.18-6.09,1.1-15.53.79-22.61a46.77,46.77,0,0,1,.28-10.31,34,34,0,0,1,4.14-10.38c2.74-4.9,5.27-9.81,7.58-14.87A19,19,0,0,0,261,236a17,17,0,0,0-5.3,2.32c2.89-2.52,7.47-5.75,11.06-7.08C261.67,229.86,255.76,230.55,249.1,234.81ZM61.84,209.62c-10.71.64-17,4.12-20.66,7.83-.3-3.78,1.83-10.66,4.11-13.7A47,47,0,0,0,12.21,235.1c-9.42-30.17-7.74-66.2,11.36-92.28,0,32.08,28.64,36.34,37.61,57.6,2.57-4.08,2.47-9.34,1.29-14.24C73,192,90.14,210.07,94.15,221.41,93.5,220.17,79.65,208.55,61.84,209.62Zm195.84,31.56a36.77,36.77,0,0,0-7.76,16.48c-1.26,6.35.39,13.89,0,20.32-1.08,19.3-24,24.86-23.15-.72a23.56,23.56,0,0,0,5.61,9.56c-4.11-16.42-2-38.19,12.07-50.63-1.76,3.62-2.11,6.71-2.16,11,2.65-5.09,8.71-9.71,11.4-10.2-2.81,4.23-3.93,7.13-4.08,9.77A12.34,12.34,0,0,1,257.68,241.18ZM132.93,94c-5.41-8.75-2.83-24.6,13-27.37C135.71,72.43,132.58,83.48,132.93,94Zm93.95,74.39c-6.69-11.81-15.56-39.16-5.11-42.06,7.48-2.08,9.72,18.81,10.84,26.07,2.48,16,7.56,31.37,6.32,47.71C237.2,188.8,232.5,178.28,226.88,168.37Zm24.76-12.6c7.75,12.42,17.79,24,19.67,39.17-2.94-7.26-7.31-14.15-13.79-18.59-12.37-8.48-23.48-24.18-19.12-35.79,2.19-5.82,5.84-4.15,7.11.06C247.58,147.48,248.61,150.92,251.64,155.77Zm48,19.9c-12-26.51-39.59-36.61-62.48-51.37,5-5,11.33-6.36,17.34-2,18.91,13.74,33,12.63,45,30.08-1.3-11.32-11.42-18.49-21.4-22.2-9-3.34-12.34-13.8-20.31-18.43a27.56,27.56,0,0,0,17.55-7.84c-18.89,12-42.83-11.58-60.79,2.8a12,12,0,0,0-3.8,11.19c-18.53,5-17,9.7-11.43,8.39,7.74-1.84,14.62-4.45,22.67-3.12,17,3.95,29.22,15.59,44.32,23.84,1.65,7.44-3.86,14.35.69,25.12,9.32,22,26.86,26.8,26.86,56.72,9.58-29.23-13.53-52.7-22.28-78.18a53.87,53.87,0,0,1,26.5,27c-2.89,5-.26,14.25,3.81,18.31,12.82,12.82,25.38,23.49,33.94,52C333.13,221,323.37,191.09,299.6,175.67Zm-67.12-54.13a20.1,20.1,0,0,0-13.95-3.86c7.58-3.09,15.17-13.3,24.25-10.23C236.55,109.36,233,115.33,232.48,121.54Zm-37.31-77c-.27-6.54-7.46-8.88-11-3.27-1.37,2.18-.92,4.73-1.83,6.94-1.09,2.66-2.91,4.86-4,7.62-2,5.11,0,11.75,5.92,11.75C193.92,67.59,195.51,52.71,195.17,44.56ZM189,49.4a1.33,1.33,0,0,1,0,2.66A1.33,1.33,0,0,1,189,49.4Zm-41.17,59.85c.32,2.68.78,6.25,2.33,8.45-13.18-6.52-18.85-26.25-9-37.93-2.67,10.64,2.3,22.38,11.17,28.76-1.42-1.06-2.46-6.26-1.7-7.83,2.19,5.61,8.46,9.21,14.29,10.35,10.14,2,15-4.84,24.8-10.92,6.08-3.77,13.28-1.09,22.47-3.77-4.74,7.74-8.79,5.62-16.28,11.57-3.89,3.09-8.87,1.38-12.68,2.8-4.88,1.81-4.69,6.2-10.87,8C163.54,121.19,153.93,115.41,147.83,109.25Z" transform="translate(0)"/></svg>